<?xml version="1.0" encoding="UTF-8"?>
<!DOCTYPE svg PUBLIC "-//W3C//DTD SVG 1.1//EN" "http://www.w3.org/Graphics/SVG/1.1/DTD/svg11.dtd">
<!-- Creator: CorelDRAW -->
<svg xmlns="http://www.w3.org/2000/svg" xml:space="preserve" width="1.70666in" height="1.70666in" version="1.1" style="shape-rendering:geometricPrecision; text-rendering:geometricPrecision; image-rendering:optimizeQuality; fill-rule:evenodd; clip-rule:evenodd"
viewBox="0 0 1707 1707"
 xmlns:xlink="http://www.w3.org/1999/xlink">
 <defs>
  <style type="text/css">
   <![CDATA[
    .fil0 {fill:#70B15D;fill-rule:nonzero}
    .fil5 {fill:#7A3128;fill-rule:nonzero}
    .fil3 {fill:#BB7A20;fill-rule:nonzero}
    .fil2 {fill:#CB8D42;fill-rule:nonzero}
    .fil4 {fill:#D3262A;fill-rule:nonzero}
    .fil1 {fill:#F0BF7A;fill-rule:nonzero}
   ]]>
  </style>
 </defs>
 <g id="Layer_x0020_1">
  <metadata id="CorelCorpID_0Corel-Layer"/>
  <g id="_554747512">
   <path class="fil0" d="M853 186c0,0 0,0 0,0 -22,0 -40,-18 -40,-40 0,-45 19,-126 89,-145 22,-5 44,7 49,29 6,21 -7,43 -28,49 -22,5 -29,49 -30,67 0,22 -18,40 -40,40z"/>
   <path class="fil1" d="M853 1707c-388,0 -802,-111 -802,-317 0,-36 13,-70 39,-102 14,-18 39,-20 56,-7 17,14 20,39 7,57 -12,14 -19,28 -21,43 139,112 437,172 721,172 285,0 582,-60 722,-172 -2,-15 -9,-29 -21,-43 -14,-18 -11,-43 7,-57 17,-13 42,-11 56,7 25,32 38,66 38,102 0,206 -413,317 -802,317z"/>
   <path class="fil2" d="M853 1553c-388,0 -802,-111 -802,-317 0,-36 13,-70 39,-102 14,-17 39,-20 56,-7 17,14 20,39 7,57 -12,14 -19,28 -21,42l0 0c128,103 389,163 649,171 21,15 46,24 72,24 27,0 52,-9 72,-24 261,-8 522,-68 650,-171 -3,-14 -10,-28 -21,-42 -14,-18 -11,-43 7,-57 17,-13 42,-11 56,7 25,32 38,66 38,102 0,206 -413,317 -802,317zm-704 -269c2,3 4,6 7,9 -2,-3 -4,-7 -7,-9zm1402 9c2,-3 5,-6 7,-9 -3,2 -5,6 -7,9z"/>
   <path class="fil1" d="M916 1398c-21,0 -39,-17 -40,-39 0,-22 17,-41 39,-41 20,-1 41,-2 60,-3 1,-6 2,-12 2,-18l0 -56c235,-14 476,-69 598,-168 -2,-14 -9,-29 -21,-43 -14,-18 -11,-43 7,-57 17,-13 42,-10 56,7 25,32 38,66 38,102 0,193 -371,305 -738,316 0,0 0,0 -1,0zm-346 -173c-169,-24 -341,-74 -438,-152 2,-14 9,-29 21,-43 13,-18 10,-43 -7,-57 -17,-13 -42,-11 -56,7 -26,32 -39,66 -39,102 0,193 372,305 738,316 1,0 1,0 2,0l0 0c21,0 39,-17 39,-39 1,-22 -16,-41 -38,-41 -21,-1 -41,-2 -61,-3 0,-4 -1,-8 -1,-12 -13,5 -28,8 -43,8 -55,0 -101,-36 -117,-86z"/>
   <path class="fil2" d="M937 1243c-22,0 -40,-17 -40,-38 -1,-22 16,-41 38,-42 65,-2 126,-8 183,-16 16,-21 25,-46 25,-74l0 -3c167,-24 335,-74 432,-151 -2,-14 -9,-29 -21,-43 -14,-18 -11,-43 7,-57 17,-13 42,-10 56,7 25,32 38,66 38,102 0,197 -371,302 -717,315 0,0 -1,0 -1,0zm-373 -99l0 -74c-167,-24 -336,-74 -432,-151 2,-14 9,-29 21,-43 13,-18 10,-43 -7,-57 -17,-13 -42,-10 -56,7 -26,32 -39,66 -39,102 0,171 283,268 548,301 1,0 3,0 5,0l0 0c20,0 37,-14 39,-35 3,-21 -12,-41 -34,-44 -16,-2 -31,-4 -45,-6zm206 99l0 0c-1,0 -1,0 -2,0l0 0c-22,-1 -39,-20 -38,-42 1,-22 19,-39 42,-38 22,1 39,20 38,42 -1,21 -19,38 -40,38z"/>
   <path class="fil1" d="M1103 1075c-50,0 -54,-73 -5,-79 15,-2 30,-4 45,-6l0 -74c52,-7 100,-16 151,-29 111,-28 281,-85 340,-190 14,25 21,51 21,77 0,171 -282,268 -547,301 -2,0 -3,0 -5,0zm-539 -159c-145,-21 -413,-80 -492,-219 -14,25 -21,51 -21,77 0,171 283,268 548,301 52,7 62,-73 10,-79 -16,-2 -31,-4 -45,-6l0 -74z"/>
   <path class="fil3" d="M564 916c-254,-37 -513,-132 -513,-296 0,-135 192,-248 502,-295 21,-4 42,11 45,33 3,22 -12,42 -33,46 -13,2 -24,4 -36,6 38,120 182,312 314,312 3,0 7,0 10,0 3,0 7,0 10,0 132,0 277,-192 315,-312 -12,-2 -24,-4 -36,-6 -22,-4 -37,-24 -33,-46 3,-22 23,-37 45,-33 309,47 501,160 501,295 0,164 -258,259 -512,296l0 157c0,68 -55,123 -123,123 -15,0 -30,-3 -43,-8l0 109c0,68 -56,124 -124,124 -66,0 -120,-53 -123,-118 -13,5 -28,8 -43,8 -68,0 -123,-55 -123,-123l0 -272z"/>
   <path class="fil4" d="M863 722c-3,0 -7,0 -10,0 -3,0 -7,0 -10,0 -143,0 -300,-224 -321,-340 -22,-84 -13,-152 26,-203 42,-54 116,-83 209,-83 31,0 63,3 96,9 33,-6 66,-9 97,-9 93,0 167,29 208,83 40,51 49,119 27,203 -22,116 -179,340 -322,340z"/>
   <path class="fil5" d="M679 372c-22,0 -40,-17 -40,-40l0 -34c0,-22 18,-40 40,-40 22,0 40,18 40,40l0 34c0,23 -18,40 -40,40z"/>
   <path class="fil5" d="M728 493c-22,0 -40,-18 -40,-40l0 -34c0,-22 18,-40 40,-40 22,0 40,18 40,40l0 34c0,22 -18,40 -40,40z"/>
   <path class="fil5" d="M846 452c-22,0 -40,-18 -40,-40l0 -35c0,-22 18,-40 40,-40 22,0 40,18 40,40l0 35c0,22 -18,40 -40,40z"/>
   <path class="fil5" d="M817 599c-22,0 -40,-18 -40,-40l0 -34c0,-22 18,-40 40,-40 22,0 40,18 40,40l0 34c0,22 -18,40 -40,40z"/>
   <path class="fil5" d="M942 537c-22,0 -40,-18 -40,-40l0 -35c0,-22 18,-40 40,-40 22,0 40,18 40,40l0 35c0,22 -18,40 -40,40z"/>
   <path class="fil5" d="M1028 406c-22,0 -40,-18 -40,-40l0 -34c0,-23 18,-40 40,-40 22,0 40,17 40,40l0 34c0,22 -18,40 -40,40z"/>
   <path class="fil5" d="M939 333c-22,0 -40,-18 -40,-40l0 -34c0,-22 18,-40 40,-40 22,0 40,18 40,40l0 34c0,22 -18,40 -40,40z"/>
   <path class="fil5" d="M807 333c-22,0 -40,-18 -40,-40l0 -34c0,-22 18,-40 40,-40 22,0 40,18 40,40l0 34c0,22 -18,40 -40,40z"/>
  </g>
 </g>
</svg>
